;Layer: Drill PTH
;EasyEDA v5.9.42, Thu, 04 Apr 2019 19:27:21 GMT
;a42c463e7e4844508e23aeb05d994216
;Gerber Generator version 0.2
M48
METRIC,LZ,000.000
;Holesize 1 = 0.305 METRIC
T01C0.305
;Holesize 2 = 0.600 METRIC
T02C0.600
;Holesize 3 = 0.701 METRIC
T03C0.701
;Holesize 4 = 0.712 METRIC
T04C0.712
;Holesize 5 = 0.798 METRIC
T05C0.798
;Holesize 6 = 0.800 METRIC
T06C0.800
;Holesize 7 = 0.889 METRIC
T07C0.889
;Holesize 8 = 0.900 METRIC
T08C0.900
;Holesize 9 = 0.915 METRIC
T09C0.915
;Holesize 10 = 1.000 METRIC
T10C1.000
;Holesize 11 = 1.016 METRIC
T11C1.016
;Holesize 12 = 1.067 METRIC
T12C1.067
;Holesize 13 = 1.200 METRIC
T13C1.200
;Holesize 14 = 1.220 METRIC
T14C1.220
;Holesize 15 = 1.701 METRIC
T15C1.701
;Holesize 16 = 1.800 METRIC
T16C1.800
%
G05
G90
T01
X+027686Y+031986
X+048514Y+031986
X+068834Y+031986
X+027686Y+060180
X+048514Y+060180
X+068834Y+060180
X+013970Y+064752
X+032766Y+065260
X+047244Y+067292
X+047244Y+060180
X+047244Y+036812
X+067564Y+060180
X+067564Y+063736
X+067564Y+036812
X+073914Y+068308
X+091694Y+041130
X+075692Y+085834
X+026924Y+126474
X+011938Y+070340
X+049530Y+063228
X+062992Y+063228
X+062992Y+055100
X+042672Y+063228
X+042672Y+055100
X+022352Y+063228
X+022352Y+055100
X+013970Y+040368
X+033274Y+040368
X+053340Y+040368
X+073660Y+040368
T02
X+082948Y+080040G85X+082948Y+077541
X+084800Y+074094G85X+087299Y+074094
T03
X+018923Y+066149
X+018923Y+064879
X+018923Y+063609
X+038227Y+066149
X+038227Y+064879
X+038227Y+063609
X+057785Y+066149
X+057785Y+064879
X+057785Y+063609
X+077089Y+066149
X+077089Y+064879
X+077089Y+063609
X+016383Y+140571
X+016383Y+139301
X+016383Y+138031
X+054356Y+090406
X+054356Y+091907
X+010287Y+140571
X+010287Y+139301
X+010287Y+138031
X+077597Y+047861
X+076327Y+047861
X+075057Y+047861
X+016637Y+047861
X+015367Y+047861
X+014097Y+047861
X+036957Y+047861
X+035687Y+047861
X+034417Y+047861
X+057277Y+047861
X+056007Y+047861
X+054737Y+047861
T04
X+033528Y+087358
X+036068Y+087358
X+038608Y+087358
X+041148Y+087358
X+043688Y+087358
X+046228Y+087358
X+048768Y+087358
X+051308Y+087358
X+051308Y+094978
X+048768Y+094978
X+046228Y+094978
X+043688Y+094978
X+041148Y+094978
X+038608Y+094978
X+036068Y+094978
X+033528Y+094978
T05
X+090932Y+012707
X+090932Y+014688
T06
X+034798Y+100820
X+034798Y+103360
X+034798Y+105900
X+034798Y+108440
X+034798Y+110980
X+034798Y+113520
X+034798Y+116060
X+034798Y+118600
X+034798Y+121140
X+034798Y+123680
X+034798Y+126220
X+034798Y+128760
X+034798Y+131300
X+034798Y+133840
X+034798Y+136431
X+050038Y+100820
X+050038Y+103360
X+050038Y+105900
X+050038Y+108440
X+050038Y+110980
X+050038Y+113520
X+050038Y+116060
X+050038Y+118600
X+050038Y+121140
X+050038Y+123680
X+050038Y+126220
X+050038Y+128760
X+050038Y+131300
X+050038Y+133840
X+050038Y+136380
X+091423Y+019794
X+089424Y+019794
T07
X+040894Y+103868
X+043434Y+103868
X+043434Y+106408
X+040894Y+106408
X+036921Y+140281
X+044541Y+140281
X+040894Y+108948
X+043434Y+108948
X+050038Y+141968
X+055118Y+121140
X+055372Y+113520
X+055372Y+110980
X+020320Y+024620
X+017780Y+024620
X+039624Y+024620
X+037084Y+024620
X+058674Y+024620
X+056134Y+024620
X+078232Y+024874
X+075692Y+024874
T08
X+069545Y+118854
X+063042Y+118854
X+011176Y+048242
X+011176Y+058402
X+031496Y+048242
X+031496Y+058402
X+051816Y+048242
X+051816Y+058402
X+072136Y+048242
X+072136Y+058402
X+039878Y+046972
X+039878Y+057132
X+062738Y+034780
X+052578Y+034780
X+060198Y+046972
X+060198Y+057132
X+080518Y+046972
X+080518Y+057132
X+019558Y+046972
X+019558Y+057132
X+024384Y+034780
X+014224Y+034780
X+077724Y+090660
X+067564Y+090660
X+043688Y+034780
X+033528Y+034780
X+082296Y+034780
X+072136Y+034780
X+026924Y+105646
X+026924Y+095486
X+030226Y+105646
X+030226Y+095486
X+031750Y+140698
X+021590Y+140698
X+077724Y+102090
X+067564Y+102090
T09
X+076454Y+088120
X+068834Y+088120
X+076454Y+093200
X+068834Y+093200
X+016002Y+130284
X+016002Y+127744
X+016002Y+125204
X+016002Y+122664
X+083312Y+043670
X+078232Y+043670
X+080772Y+043670
X+062992Y+043670
X+057912Y+043670
X+060452Y+043670
X+042672Y+043670
X+037592Y+043670
X+040132Y+043670
X+022352Y+043670
X+017272Y+043670
X+019812Y+043670
T10
X+089311Y+079796G85X+089311Y+077795
X+067056Y+141460
X+069596Y+141460
X+072136Y+141460
X+074676Y+141460
T11
X+004826Y+125458
X+004826Y+122918
X+004826Y+120378
X+004826Y+117838
X+004826Y+115298
X+004826Y+112758
X+004826Y+110218
X+004826Y+107678
X+004826Y+105138
X+004826Y+102598
X+004826Y+100058
X+004826Y+097518
X+004826Y+094978
X+004826Y+092438
X+004826Y+089898
X+004826Y+087358
X+020066Y+115298
X+020066Y+112758
X+020066Y+110218
X+020066Y+107678
X+020066Y+105138
X+020066Y+102598
X+020066Y+100058
X+020066Y+097518
T12
X+079757Y+038588
X+077216Y+038590
X+074676Y+038590
X+021845Y+038588
X+019304Y+038590
X+016764Y+038590
X+041149Y+038588
X+038608Y+038590
X+036068Y+038590
X+060453Y+038588
X+057912Y+038590
X+055372Y+038590
X+074677Y+028174
X+077216Y+028176
X+079756Y+028176
X+074425Y+004804
X+076964Y+004805
X+079504Y+004805
X+036071Y+028172
X+038610Y+028173
X+041150Y+028173
X+035817Y+004804
X+038356Y+004805
X+040896Y+004805
X+055121Y+028172
X+057660Y+028173
X+060200Y+028173
X+055121Y+004804
X+057660Y+004805
X+060200Y+004805
X+016767Y+028172
X+019306Y+028173
X+021846Y+028173
X+016513Y+004804
X+019052Y+004805
X+021592Y+004805
T13
X+085852Y+042908
X+071120Y+042908
X+085852Y+065260
X+071145Y+065234
X+065532Y+042908
X+050800Y+042908
X+065532Y+065260
X+050825Y+065234
X+045212Y+042908
X+030480Y+042908
X+045212Y+065260
X+030505Y+065234
X+024892Y+042908
X+010160Y+042908
X+024892Y+065260
X+010185Y+065234
X+085344Y+017571
X+085344Y+009824
X+011176Y+125013
X+011176Y+117266
T14
X+090932Y+029966
X+090932Y+027680
X+090932Y+025369
T15
X+079502Y+021572
X+074503Y+021572
X+059944Y+021572
X+054945Y+021572
X+040894Y+021572
X+035895Y+021572
X+021590Y+021572
X+016591Y+021572
T16
X+019047Y+079984G85X+019052Y+079984
X+038346Y+079984G85X+038351Y+079984
X+057647Y+079984G85X+057652Y+079984
X+076946Y+079984G85X+076951Y+079984
X+019047Y+007084G85X+019052Y+007084
X+038346Y+007084G85X+038351Y+007084
X+057647Y+007084G85X+057652Y+007084
X+076946Y+007084G85X+076951Y+007084
M30
