G04 Layer: TopSilkLayer*
G04 EasyEDA v5.9.42, Thu, 04 Apr 2019 19:27:21 GMT*
G04 a42c463e7e4844508e23aeb05d994216*
G04 Gerber Generator version 0.2*
G04 Scale: 100 percent, Rotated: No, Reflected: No *
G04 Dimensions in millimeters *
G04 leading zeros omitted , absolute positions ,3 integer and 3 decimal *
%FSLAX33Y33*%
%MOMM*%
G90*
G71D02*

%ADD10C,0.254000*%
%ADD12C,0.299999*%
%ADD49C,0.150114*%
%ADD50C,0.228600*%
%ADD51C,0.203200*%
%ADD52C,0.202999*%
%ADD53C,0.169000*%
%ADD54C,0.177800*%
%ADD55C,0.127000*%
%ADD56C,0.499999*%

%LPD*%

%LPD*%
G36*
G01X86787Y92966D02*
G01X86541Y92966D01*
G01X86441Y92965D01*
G01X86350Y92963D01*
G01X86270Y92960D01*
G01X86203Y92957D01*
G01X86152Y92954D01*
G01X86119Y92950D01*
G01X86106Y92946D01*
G01X86100Y92933D01*
G01X86093Y92912D01*
G01X86085Y92883D01*
G01X86076Y92846D01*
G01X86066Y92800D01*
G01X86055Y92747D01*
G01X86042Y92686D01*
G01X86028Y92617D01*
G01X86013Y92540D01*
G01X85997Y92456D01*
G01X85980Y92365D01*
G01X85962Y92266D01*
G01X85948Y92188D01*
G01X85934Y92115D01*
G01X85920Y92048D01*
G01X85907Y91989D01*
G01X85896Y91940D01*
G01X85886Y91901D01*
G01X85878Y91876D01*
G01X85873Y91864D01*
G01X85845Y91850D01*
G01X85786Y91824D01*
G01X85703Y91789D01*
G01X85605Y91749D01*
G01X85501Y91708D01*
G01X85401Y91667D01*
G01X85315Y91632D01*
G01X85256Y91608D01*
G01X85154Y91565D01*
G01X84781Y91819D01*
G01X84705Y91871D01*
G01X84629Y91922D01*
G01X84557Y91970D01*
G01X84490Y92014D01*
G01X84430Y92054D01*
G01X84379Y92086D01*
G01X84339Y92112D01*
G01X84312Y92128D01*
G01X84216Y92183D01*
G01X83829Y91793D01*
G01X83441Y91403D01*
G01X83505Y91298D01*
G01X83522Y91271D01*
G01X83547Y91233D01*
G01X83577Y91188D01*
G01X83612Y91135D01*
G01X83651Y91077D01*
G01X83692Y91016D01*
G01X83735Y90954D01*
G01X83779Y90891D01*
G01X83821Y90829D01*
G01X83862Y90769D01*
G01X83901Y90712D01*
G01X83965Y90616D01*
G01X83989Y90578D01*
G01X84007Y90550D01*
G01X84017Y90533D01*
G01X84024Y90514D01*
G01X84026Y90490D01*
G01X84021Y90459D01*
G01X84010Y90417D01*
G01X83992Y90363D01*
G01X83966Y90296D01*
G01X83931Y90211D01*
G01X83886Y90108D01*
G01X83860Y90047D01*
G01X83838Y89993D01*
G01X83817Y89945D01*
G01X83799Y89903D01*
G01X83781Y89867D01*
G01X83764Y89835D01*
G01X83747Y89807D01*
G01X83728Y89783D01*
G01X83707Y89763D01*
G01X83684Y89745D01*
G01X83658Y89730D01*
G01X83627Y89717D01*
G01X83592Y89705D01*
G01X83551Y89694D01*
G01X83504Y89683D01*
G01X83449Y89673D01*
G01X83388Y89662D01*
G01X83317Y89650D01*
G01X83238Y89636D01*
G01X83148Y89621D01*
G01X83063Y89605D01*
G01X82981Y89589D01*
G01X82906Y89573D01*
G01X82839Y89557D01*
G01X82781Y89543D01*
G01X82736Y89529D01*
G01X82704Y89518D01*
G01X82688Y89509D01*
G01X82678Y89493D01*
G01X82670Y89467D01*
G01X82663Y89428D01*
G01X82658Y89375D01*
G01X82654Y89304D01*
G01X82652Y89215D01*
G01X82651Y89105D01*
G01X82650Y88971D01*
G01X82651Y88870D01*
G01X82653Y88774D01*
G01X82655Y88686D01*
G01X82658Y88607D01*
G01X82662Y88540D01*
G01X82666Y88487D01*
G01X82670Y88451D01*
G01X82675Y88433D01*
G01X82689Y88423D01*
G01X82719Y88410D01*
G01X82764Y88396D01*
G01X82824Y88380D01*
G01X82897Y88362D01*
G01X82983Y88343D01*
G01X83081Y88323D01*
G01X83190Y88302D01*
G01X83288Y88283D01*
G01X83381Y88264D01*
G01X83466Y88247D01*
G01X83541Y88230D01*
G01X83604Y88216D01*
G01X83652Y88204D01*
G01X83684Y88195D01*
G01X83698Y88189D01*
G01X83708Y88173D01*
G01X83725Y88136D01*
G01X83748Y88083D01*
G01X83776Y88018D01*
G01X83808Y87943D01*
G01X83841Y87863D01*
G01X83874Y87781D01*
G01X83907Y87700D01*
G01X83937Y87625D01*
G01X83963Y87558D01*
G01X83983Y87504D01*
G01X83996Y87465D01*
G01X84001Y87442D01*
G01X84000Y87417D01*
G01X83992Y87387D01*
G01X83975Y87349D01*
G01X83948Y87301D01*
G01X83910Y87239D01*
G01X83859Y87162D01*
G01X83794Y87067D01*
G01X83748Y86999D01*
G01X83702Y86932D01*
G01X83658Y86866D01*
G01X83617Y86805D01*
G01X83580Y86749D01*
G01X83548Y86701D01*
G01X83523Y86663D01*
G01X83506Y86635D01*
G01X83441Y86530D01*
G01X83821Y86147D01*
G01X83898Y86070D01*
G01X83971Y85998D01*
G01X84039Y85933D01*
G01X84099Y85876D01*
G01X84151Y85829D01*
G01X84191Y85794D01*
G01X84220Y85771D01*
G01X84234Y85764D01*
G01X84250Y85769D01*
G01X84279Y85786D01*
G01X84323Y85811D01*
G01X84377Y85845D01*
G01X84441Y85886D01*
G01X84591Y85986D01*
G01X84672Y86042D01*
G01X85077Y86320D01*
G01X85280Y86213D01*
G01X85393Y86156D01*
G01X85459Y86130D01*
G01X85495Y86132D01*
G01X85520Y86155D01*
G01X85527Y86167D01*
G01X85539Y86189D01*
G01X85553Y86220D01*
G01X85572Y86260D01*
G01X85593Y86307D01*
G01X85617Y86361D01*
G01X85643Y86421D01*
G01X85672Y86487D01*
G01X85702Y86557D01*
G01X85733Y86631D01*
G01X85765Y86708D01*
G01X85798Y86788D01*
G01X85823Y86848D01*
G01X85875Y86972D01*
G01X85900Y87035D01*
G01X85926Y87096D01*
G01X85951Y87157D01*
G01X85976Y87217D01*
G01X86000Y87275D01*
G01X86023Y87331D01*
G01X86046Y87385D01*
G01X86067Y87435D01*
G01X86086Y87482D01*
G01X86104Y87525D01*
G01X86120Y87564D01*
G01X86135Y87598D01*
G01X86147Y87627D01*
G01X86187Y87728D01*
G01X86218Y87815D01*
G01X86236Y87877D01*
G01X86238Y87907D01*
G01X86218Y87927D01*
G01X86176Y87963D01*
G01X86116Y88009D01*
G01X86047Y88061D01*
G01X86000Y88097D01*
G01X85956Y88132D01*
G01X85916Y88168D01*
G01X85878Y88205D01*
G01X85843Y88243D01*
G01X85811Y88282D01*
G01X85780Y88322D01*
G01X85752Y88365D01*
G01X85725Y88409D01*
G01X85699Y88456D01*
G01X85675Y88505D01*
G01X85652Y88558D01*
G01X85632Y88610D01*
G01X85615Y88664D01*
G01X85600Y88718D01*
G01X85589Y88772D01*
G01X85581Y88827D01*
G01X85576Y88882D01*
G01X85574Y88938D01*
G01X85574Y88993D01*
G01X85577Y89048D01*
G01X85584Y89103D01*
G01X85592Y89158D01*
G01X85604Y89212D01*
G01X85618Y89265D01*
G01X85635Y89317D01*
G01X85654Y89369D01*
G01X85676Y89420D01*
G01X85700Y89469D01*
G01X85727Y89517D01*
G01X85756Y89564D01*
G01X85787Y89609D01*
G01X85821Y89653D01*
G01X85856Y89694D01*
G01X85894Y89734D01*
G01X85935Y89772D01*
G01X85977Y89807D01*
G01X86021Y89840D01*
G01X86067Y89871D01*
G01X86116Y89899D01*
G01X86170Y89927D01*
G01X86224Y89953D01*
G01X86277Y89975D01*
G01X86331Y89994D01*
G01X86384Y90010D01*
G01X86437Y90024D01*
G01X86489Y90034D01*
G01X86542Y90042D01*
G01X86595Y90047D01*
G01X86648Y90048D01*
G01X86701Y90047D01*
G01X86755Y90043D01*
G01X86808Y90036D01*
G01X86862Y90026D01*
G01X86917Y90014D01*
G01X86971Y89998D01*
G01X87035Y89976D01*
G01X87096Y89952D01*
G01X87155Y89924D01*
G01X87211Y89894D01*
G01X87265Y89861D01*
G01X87317Y89824D01*
G01X87366Y89786D01*
G01X87412Y89744D01*
G01X87456Y89700D01*
G01X87497Y89653D01*
G01X87536Y89603D01*
G01X87571Y89552D01*
G01X87604Y89498D01*
G01X87633Y89441D01*
G01X87660Y89382D01*
G01X87683Y89321D01*
G01X87698Y89274D01*
G01X87711Y89230D01*
G01X87720Y89187D01*
G01X87727Y89142D01*
G01X87731Y89094D01*
G01X87732Y89041D01*
G01X87732Y88981D01*
G01X87730Y88911D01*
G01X87725Y88840D01*
G01X87718Y88771D01*
G01X87707Y88705D01*
G01X87692Y88642D01*
G01X87675Y88581D01*
G01X87654Y88523D01*
G01X87629Y88466D01*
G01X87600Y88412D01*
G01X87568Y88360D01*
G01X87532Y88309D01*
G01X87492Y88260D01*
G01X87447Y88212D01*
G01X87399Y88165D01*
G01X87346Y88119D01*
G01X87289Y88074D01*
G01X87227Y88030D01*
G01X87168Y87987D01*
G01X87120Y87948D01*
G01X87088Y87916D01*
G01X87076Y87896D01*
G01X87078Y87888D01*
G01X87083Y87873D01*
G01X87092Y87849D01*
G01X87104Y87818D01*
G01X87118Y87780D01*
G01X87156Y87685D01*
G01X87178Y87628D01*
G01X87203Y87567D01*
G01X87229Y87500D01*
G01X87258Y87430D01*
G01X87288Y87355D01*
G01X87320Y87277D01*
G01X87353Y87196D01*
G01X87387Y87113D01*
G01X87422Y87028D01*
G01X87458Y86942D01*
G01X87492Y86859D01*
G01X87526Y86778D01*
G01X87558Y86700D01*
G01X87589Y86625D01*
G01X87618Y86554D01*
G01X87646Y86488D01*
G01X87671Y86426D01*
G01X87694Y86369D01*
G01X87716Y86318D01*
G01X87734Y86273D01*
G01X87750Y86235D01*
G01X87763Y86203D01*
G01X87773Y86179D01*
G01X87779Y86163D01*
G01X87783Y86155D01*
G01X87808Y86127D01*
G01X87856Y86128D01*
G01X87935Y86158D01*
G01X88057Y86221D01*
G01X88238Y86320D01*
G01X88646Y86042D01*
G01X88729Y85986D01*
G01X88807Y85934D01*
G01X88880Y85887D01*
G01X88945Y85845D01*
G01X89000Y85811D01*
G01X89043Y85786D01*
G01X89074Y85769D01*
G01X89089Y85764D01*
G01X89106Y85772D01*
G01X89137Y85795D01*
G01X89179Y85831D01*
G01X89231Y85877D01*
G01X89290Y85933D01*
G01X89354Y85995D01*
G01X89422Y86062D01*
G01X89491Y86131D01*
G01X89559Y86201D01*
G01X89625Y86270D01*
G01X89686Y86335D01*
G01X89741Y86395D01*
G01X89787Y86448D01*
G01X89822Y86490D01*
G01X89845Y86522D01*
G01X89853Y86539D01*
G01X89848Y86556D01*
G01X89833Y86586D01*
G01X89810Y86628D01*
G01X89780Y86679D01*
G01X89743Y86738D01*
G01X89701Y86804D01*
G01X89655Y86874D01*
G01X89605Y86948D01*
G01X89555Y87021D01*
G01X89507Y87092D01*
G01X89462Y87158D01*
G01X89422Y87218D01*
G01X89387Y87269D01*
G01X89360Y87312D01*
G01X89340Y87343D01*
G01X89329Y87361D01*
G01X89323Y87378D01*
G01X89322Y87403D01*
G01X89326Y87434D01*
G01X89336Y87476D01*
G01X89353Y87529D01*
G01X89376Y87594D01*
G01X89406Y87674D01*
G01X89444Y87771D01*
G01X89473Y87844D01*
G01X89502Y87913D01*
G01X89529Y87978D01*
G01X89553Y88036D01*
G01X89575Y88085D01*
G01X89594Y88125D01*
G01X89608Y88154D01*
G01X89617Y88169D01*
G01X89631Y88180D01*
G01X89660Y88192D01*
G01X89703Y88206D01*
G01X89759Y88221D01*
G01X89827Y88238D01*
G01X89907Y88256D01*
G01X89999Y88274D01*
G01X90100Y88294D01*
G01X90192Y88311D01*
G01X90280Y88328D01*
G01X90362Y88343D01*
G01X90435Y88357D01*
G01X90497Y88370D01*
G01X90547Y88380D01*
G01X90583Y88388D01*
G01X90602Y88392D01*
G01X90617Y88400D01*
G01X90628Y88416D01*
G01X90636Y88445D01*
G01X90642Y88493D01*
G01X90646Y88565D01*
G01X90649Y88664D01*
G01X90650Y88797D01*
G01X90650Y89152D01*
G01X90649Y89292D01*
G01X90647Y89392D01*
G01X90642Y89460D01*
G01X90635Y89502D01*
G01X90624Y89526D01*
G01X90609Y89537D01*
G01X90588Y89543D01*
G01X90567Y89548D01*
G01X90529Y89555D01*
G01X90476Y89565D01*
G01X90412Y89577D01*
G01X90337Y89591D01*
G01X90255Y89606D01*
G01X90167Y89622D01*
G01X90075Y89639D01*
G01X89984Y89656D01*
G01X89898Y89673D01*
G01X89819Y89689D01*
G01X89750Y89703D01*
G01X89691Y89716D01*
G01X89616Y89736D01*
G01X89602Y89742D01*
G01X89587Y89766D01*
G01X89563Y89812D01*
G01X89533Y89876D01*
G01X89498Y89954D01*
G01X89461Y90040D01*
G01X89424Y90130D01*
G01X89387Y90221D01*
G01X89353Y90306D01*
G01X89325Y90382D01*
G01X89303Y90444D01*
G01X89290Y90488D01*
G01X89287Y90509D01*
G01X89295Y90524D01*
G01X89314Y90554D01*
G01X89341Y90596D01*
G01X89377Y90650D01*
G01X89420Y90713D01*
G01X89468Y90784D01*
G01X89520Y90861D01*
G01X89632Y91023D01*
G01X89684Y91101D01*
G01X89731Y91173D01*
G01X89772Y91239D01*
G01X89805Y91295D01*
G01X89831Y91341D01*
G01X89847Y91374D01*
G01X89853Y91392D01*
G01X89845Y91410D01*
G01X89822Y91442D01*
G01X89787Y91485D01*
G01X89741Y91537D01*
G01X89686Y91597D01*
G01X89625Y91663D01*
G01X89559Y91732D01*
G01X89490Y91802D01*
G01X89420Y91871D01*
G01X89352Y91938D01*
G01X89288Y92000D01*
G01X89229Y92056D01*
G01X89177Y92102D01*
G01X89134Y92138D01*
G01X89103Y92161D01*
G01X89085Y92169D01*
G01X89071Y92164D01*
G01X89044Y92150D01*
G01X89006Y92128D01*
G01X88958Y92098D01*
G01X88903Y92063D01*
G01X88841Y92022D01*
G01X88774Y91977D01*
G01X88703Y91929D01*
G01X88631Y91879D01*
G01X88561Y91830D01*
G01X88493Y91784D01*
G01X88429Y91741D01*
G01X88372Y91703D01*
G01X88324Y91670D01*
G01X88285Y91645D01*
G01X88259Y91628D01*
G01X88161Y91569D01*
G01X87859Y91692D01*
G01X87797Y91717D01*
G01X87737Y91742D01*
G01X87680Y91765D01*
G01X87628Y91786D01*
G01X87583Y91805D01*
G01X87545Y91820D01*
G01X87516Y91832D01*
G01X87498Y91839D01*
G01X87481Y91846D01*
G01X87467Y91854D01*
G01X87454Y91864D01*
G01X87443Y91879D01*
G01X87433Y91901D01*
G01X87422Y91932D01*
G01X87411Y91974D01*
G01X87399Y92029D01*
G01X87384Y92101D01*
G01X87368Y92189D01*
G01X87348Y92298D01*
G01X87324Y92429D01*
G01X87306Y92523D01*
G01X87289Y92612D01*
G01X87271Y92695D01*
G01X87255Y92768D01*
G01X87240Y92831D01*
G01X87227Y92880D01*
G01X87217Y92914D01*
G01X87209Y92930D01*
G01X87195Y92940D01*
G01X87169Y92948D01*
G01X87128Y92954D01*
G01X87072Y92959D01*
G01X86997Y92962D01*
G01X86903Y92965D01*
G01X86787Y92966D01*
G37*

%LPD*%
G54D12*
G01X39207Y124188D02*
G01X39207Y112758D01*
G01X44795Y112758D01*
G01X44795Y124188D01*
G01X39207Y124188D01*
G01X39207Y119108D02*
G01X44795Y119108D01*
G01X42001Y124188D02*
G01X42001Y112758D01*
G54D10*
G01X17424Y62898D02*
G01X17424Y66857D01*
G01X36728Y62898D02*
G01X36728Y66857D01*
G01X56286Y62898D02*
G01X56286Y66857D01*
G01X75590Y62898D02*
G01X75590Y66857D01*
G01X70485Y87612D02*
G01X74803Y87612D01*
G01X74803Y93708D02*
G01X70485Y93708D01*
G01X69596Y89669D02*
G01X69596Y91676D01*
G01X75692Y89644D02*
G01X75692Y91676D01*
G01X8580Y4544D02*
G01X8580Y82524D01*
G01X87419Y82524D01*
G01X87419Y4544D01*
G01X8580Y4544D01*
G01X8636Y135872D02*
G01X88392Y135872D01*
G01X88392Y100058D01*
G01X8890Y100058D01*
G01X8636Y100312D01*
G01X8636Y135872D01*
G54D49*
G01X18542Y128760D02*
G01X83058Y128760D01*
G01X83058Y107678D01*
G01X13716Y107678D01*
G01X13462Y107932D01*
G01X13462Y120886D01*
G01X16764Y120886D01*
G01X16764Y110980D01*
G01X17018Y110726D01*
G01X80010Y110726D01*
G01X80518Y111234D01*
G01X80518Y125966D01*
G01X80010Y126474D01*
G01X19304Y126474D01*
G01X18542Y127236D01*
G01X18542Y128760D01*
G54D50*
G01X32258Y88628D02*
G01X52578Y88628D01*
G01X52578Y93708D01*
G01X32258Y93708D01*
G01X32258Y88628D01*
G54D51*
G01X39624Y102598D02*
G01X39624Y105138D01*
G01X42164Y105138D01*
G01X42164Y102598D01*
G01X40259Y102598D01*
G54D52*
G01X39624Y102598D02*
G01X40259Y102598D01*
G54D51*
G01X42164Y102598D02*
G01X42164Y105138D01*
G01X44704Y105138D01*
G01X44704Y102598D01*
G01X42799Y102598D01*
G54D52*
G01X42164Y102598D02*
G01X42799Y102598D01*
G54D51*
G01X42164Y105138D02*
G01X42164Y107678D01*
G01X44704Y107678D01*
G01X44704Y105138D01*
G01X42799Y105138D01*
G54D52*
G01X42164Y105138D02*
G01X42799Y105138D01*
G54D51*
G01X39624Y105138D02*
G01X39624Y107678D01*
G01X42164Y107678D01*
G01X42164Y105138D01*
G01X40259Y105138D01*
G54D52*
G01X39624Y105138D02*
G01X40259Y105138D01*
G54D51*
G01X38191Y139011D02*
G01X35651Y139011D01*
G01X35651Y141551D01*
G01X38191Y141551D01*
G01X38191Y139646D01*
G54D52*
G01X38191Y139011D02*
G01X38191Y139646D01*
G54D51*
G01X45811Y139011D02*
G01X43271Y139011D01*
G01X43271Y141551D01*
G01X45811Y141551D01*
G01X45811Y139646D01*
G54D52*
G01X45811Y139011D02*
G01X45811Y139646D01*
G54D51*
G01X42164Y107678D02*
G01X39624Y107678D01*
G01X39624Y110218D01*
G01X42164Y110218D01*
G01X42164Y108313D01*
G54D52*
G01X42164Y107678D02*
G01X42164Y108313D01*
G54D51*
G01X44704Y107678D02*
G01X42164Y107678D01*
G01X42164Y110218D01*
G01X44704Y110218D01*
G01X44704Y108313D01*
G54D52*
G01X44704Y107678D02*
G01X44704Y108313D01*
G54D10*
G01X5461Y86088D02*
G01X4191Y86088D01*
G54D51*
G01X9629Y91930D02*
G01X8890Y89989D01*
G01X9629Y91930D02*
G01X10368Y89989D01*
G01X9166Y90637D02*
G01X10088Y90637D01*
G01X12270Y91653D02*
G01X12085Y91836D01*
G01X11808Y91930D01*
G01X11437Y91930D01*
G01X11160Y91836D01*
G01X10977Y91653D01*
G01X10977Y91467D01*
G01X11069Y91282D01*
G01X11160Y91191D01*
G01X11346Y91099D01*
G01X11899Y90914D01*
G01X12085Y90820D01*
G01X12176Y90728D01*
G01X12270Y90543D01*
G01X12270Y90266D01*
G01X12085Y90083D01*
G01X11808Y89989D01*
G01X11437Y89989D01*
G01X11160Y90083D01*
G01X10977Y90266D01*
G01X14264Y91467D02*
G01X14173Y91653D01*
G01X13987Y91836D01*
G01X13802Y91930D01*
G01X13434Y91930D01*
G01X13248Y91836D01*
G01X13063Y91653D01*
G01X12971Y91467D01*
G01X12880Y91191D01*
G01X12880Y90728D01*
G01X12971Y90451D01*
G01X13063Y90266D01*
G01X13248Y90083D01*
G01X13434Y89989D01*
G01X13802Y89989D01*
G01X13987Y90083D01*
G01X14173Y90266D01*
G01X14264Y90451D01*
G01X14874Y91930D02*
G01X14874Y89989D01*
G01X14874Y91930D02*
G01X15521Y91930D01*
G01X15798Y91836D01*
G01X15981Y91653D01*
G01X16075Y91467D01*
G01X16167Y91191D01*
G01X16167Y90728D01*
G01X16075Y90451D01*
G01X15981Y90266D01*
G01X15798Y90083D01*
G01X15521Y89989D01*
G01X14874Y89989D01*
G01X18199Y91930D02*
G01X18199Y89989D01*
G01X18199Y91930D02*
G01X19491Y89989D01*
G01X19491Y91930D02*
G01X19491Y89989D01*
G01X21211Y91282D02*
G01X21211Y89989D01*
G01X21211Y91005D02*
G01X21026Y91191D01*
G01X20840Y91282D01*
G01X20563Y91282D01*
G01X20378Y91191D01*
G01X20195Y91005D01*
G01X20101Y90728D01*
G01X20101Y90543D01*
G01X20195Y90266D01*
G01X20378Y90083D01*
G01X20563Y89989D01*
G01X20840Y89989D01*
G01X21026Y90083D01*
G01X21211Y90266D01*
G01X21821Y91282D02*
G01X21821Y89989D01*
G01X21821Y90914D02*
G01X22098Y91191D01*
G01X22280Y91282D01*
G01X22560Y91282D01*
G01X22743Y91191D01*
G01X22837Y90914D01*
G01X22837Y89989D01*
G01X23906Y91282D02*
G01X23723Y91191D01*
G01X23538Y91005D01*
G01X23446Y90728D01*
G01X23446Y90543D01*
G01X23538Y90266D01*
G01X23723Y90083D01*
G01X23906Y89989D01*
G01X24185Y89989D01*
G01X24368Y90083D01*
G01X24554Y90266D01*
G01X24645Y90543D01*
G01X24645Y90728D01*
G01X24554Y91005D01*
G01X24368Y91191D01*
G01X24185Y91282D01*
G01X23906Y91282D01*
G01X26677Y91282D02*
G01X27693Y89989D01*
G01X27693Y91282D02*
G01X26677Y89989D01*
G01X29227Y91930D02*
G01X28303Y90637D01*
G01X29690Y90637D01*
G01X29227Y91930D02*
G01X29227Y89989D01*
G01X8890Y88882D02*
G01X9629Y86941D01*
G01X10368Y88882D02*
G01X9629Y86941D01*
G01X10977Y87680D02*
G01X12085Y87680D01*
G01X12085Y87866D01*
G01X11993Y88051D01*
G01X11899Y88143D01*
G01X11714Y88234D01*
G01X11437Y88234D01*
G01X11254Y88143D01*
G01X11069Y87957D01*
G01X10977Y87680D01*
G01X10977Y87495D01*
G01X11069Y87218D01*
G01X11254Y87035D01*
G01X11437Y86941D01*
G01X11714Y86941D01*
G01X11899Y87035D01*
G01X12085Y87218D01*
G01X12694Y88234D02*
G01X12694Y86941D01*
G01X12694Y87680D02*
G01X12786Y87957D01*
G01X12971Y88143D01*
G01X13157Y88234D01*
G01X13434Y88234D01*
G01X15059Y87957D02*
G01X14965Y88143D01*
G01X14688Y88234D01*
G01X14411Y88234D01*
G01X14135Y88143D01*
G01X14043Y87957D01*
G01X14135Y87772D01*
G01X14320Y87680D01*
G01X14782Y87589D01*
G01X14965Y87495D01*
G01X15059Y87312D01*
G01X15059Y87218D01*
G01X14965Y87035D01*
G01X14688Y86941D01*
G01X14411Y86941D01*
G01X14135Y87035D01*
G01X14043Y87218D01*
G01X15669Y88882D02*
G01X15760Y88788D01*
G01X15854Y88882D01*
G01X15760Y88973D01*
G01X15669Y88882D01*
G01X15760Y88234D02*
G01X15760Y86941D01*
G01X16924Y88234D02*
G01X16741Y88143D01*
G01X16555Y87957D01*
G01X16464Y87680D01*
G01X16464Y87495D01*
G01X16555Y87218D01*
G01X16741Y87035D01*
G01X16924Y86941D01*
G01X17200Y86941D01*
G01X17386Y87035D01*
G01X17571Y87218D01*
G01X17663Y87495D01*
G01X17663Y87680D01*
G01X17571Y87957D01*
G01X17386Y88143D01*
G01X17200Y88234D01*
G01X16924Y88234D01*
G01X18272Y88234D02*
G01X18272Y86941D01*
G01X18272Y87866D02*
G01X18549Y88143D01*
G01X18735Y88234D01*
G01X19011Y88234D01*
G01X19197Y88143D01*
G01X19288Y87866D01*
G01X19288Y86941D01*
G01X21320Y88511D02*
G01X21506Y88605D01*
G01X21783Y88882D01*
G01X21783Y86941D01*
G01X22484Y87403D02*
G01X22392Y87312D01*
G01X22484Y87218D01*
G01X22578Y87312D01*
G01X22484Y87403D01*
G01X23187Y88511D02*
G01X23373Y88605D01*
G01X23649Y88882D01*
G01X23649Y86941D01*
G01X24350Y88419D02*
G01X24350Y88511D01*
G01X24442Y88696D01*
G01X24536Y88788D01*
G01X24719Y88882D01*
G01X25090Y88882D01*
G01X25275Y88788D01*
G01X25366Y88696D01*
G01X25458Y88511D01*
G01X25458Y88328D01*
G01X25366Y88143D01*
G01X25181Y87866D01*
G01X24259Y86941D01*
G01X25552Y86941D01*
G01X8890Y85834D02*
G01X8890Y83893D01*
G01X8890Y84818D02*
G01X9166Y85095D01*
G01X9352Y85186D01*
G01X9629Y85186D01*
G01X9812Y85095D01*
G01X9906Y84818D01*
G01X9906Y83893D01*
G01X10792Y85834D02*
G01X10792Y84264D01*
G01X10883Y83987D01*
G01X11069Y83893D01*
G01X11254Y83893D01*
G01X10515Y85186D02*
G01X11160Y85186D01*
G01X12141Y85834D02*
G01X12141Y84264D01*
G01X12232Y83987D01*
G01X12418Y83893D01*
G01X12603Y83893D01*
G01X11864Y85186D02*
G01X12509Y85186D01*
G01X13213Y85186D02*
G01X13213Y83248D01*
G01X13213Y84909D02*
G01X13395Y85095D01*
G01X13581Y85186D01*
G01X13858Y85186D01*
G01X14043Y85095D01*
G01X14229Y84909D01*
G01X14320Y84632D01*
G01X14320Y84447D01*
G01X14229Y84170D01*
G01X14043Y83987D01*
G01X13858Y83893D01*
G01X13581Y83893D01*
G01X13395Y83987D01*
G01X13213Y84170D01*
G01X15021Y85003D02*
G01X14930Y84909D01*
G01X15021Y84818D01*
G01X15115Y84909D01*
G01X15021Y85003D01*
G01X15021Y84355D02*
G01X14930Y84264D01*
G01X15021Y84170D01*
G01X15115Y84264D01*
G01X15021Y84355D01*
G01X17386Y86202D02*
G01X15725Y83248D01*
G01X19659Y86202D02*
G01X17995Y83248D01*
G01X20269Y85186D02*
G01X20637Y83893D01*
G01X21008Y85186D02*
G01X20637Y83893D01*
G01X21008Y85186D02*
G01X21376Y83893D01*
G01X21747Y85186D02*
G01X21376Y83893D01*
G01X22357Y85186D02*
G01X22725Y83893D01*
G01X23093Y85186D02*
G01X22725Y83893D01*
G01X23093Y85186D02*
G01X23464Y83893D01*
G01X23832Y85186D02*
G01X23464Y83893D01*
G01X24442Y85186D02*
G01X24813Y83893D01*
G01X25181Y85186D02*
G01X24813Y83893D01*
G01X25181Y85186D02*
G01X25552Y83893D01*
G01X25920Y85186D02*
G01X25552Y83893D01*
G01X26624Y84355D02*
G01X26530Y84264D01*
G01X26624Y84170D01*
G01X26715Y84264D01*
G01X26624Y84355D01*
G01X27325Y85186D02*
G01X27879Y83893D01*
G01X28432Y85186D02*
G01X27879Y83893D01*
G01X29504Y85186D02*
G01X29319Y85095D01*
G01X29136Y84909D01*
G01X29042Y84632D01*
G01X29042Y84447D01*
G01X29136Y84170D01*
G01X29319Y83987D01*
G01X29504Y83893D01*
G01X29781Y83893D01*
G01X29966Y83987D01*
G01X30152Y84170D01*
G01X30243Y84447D01*
G01X30243Y84632D01*
G01X30152Y84909D01*
G01X29966Y85095D01*
G01X29781Y85186D01*
G01X29504Y85186D01*
G01X30853Y85186D02*
G01X30853Y83893D01*
G01X30853Y84632D02*
G01X30944Y84909D01*
G01X31130Y85095D01*
G01X31315Y85186D01*
G01X31592Y85186D01*
G01X32478Y85834D02*
G01X32478Y84264D01*
G01X32570Y83987D01*
G01X32755Y83893D01*
G01X32941Y83893D01*
G01X32202Y85186D02*
G01X32847Y85186D01*
G01X33550Y84632D02*
G01X34658Y84632D01*
G01X34658Y84818D01*
G01X34566Y85003D01*
G01X34472Y85095D01*
G01X34290Y85186D01*
G01X34013Y85186D01*
G01X33827Y85095D01*
G01X33642Y84909D01*
G01X33550Y84632D01*
G01X33550Y84447D01*
G01X33642Y84170D01*
G01X33827Y83987D01*
G01X34013Y83893D01*
G01X34290Y83893D01*
G01X34472Y83987D01*
G01X34658Y84170D01*
G01X35267Y85186D02*
G01X36283Y83893D01*
G01X36283Y85186D02*
G01X35267Y83893D01*
G01X36893Y85834D02*
G01X36987Y85740D01*
G01X37078Y85834D01*
G01X36987Y85925D01*
G01X36893Y85834D01*
G01X36987Y85186D02*
G01X36987Y83893D01*
G01X37965Y85834D02*
G01X37965Y84264D01*
G01X38056Y83987D01*
G01X38242Y83893D01*
G01X38427Y83893D01*
G01X37688Y85186D02*
G01X38333Y85186D01*
G01X39128Y84355D02*
G01X39037Y84264D01*
G01X39128Y84170D01*
G01X39222Y84264D01*
G01X39128Y84355D01*
G01X40939Y84909D02*
G01X40754Y85095D01*
G01X40568Y85186D01*
G01X40292Y85186D01*
G01X40109Y85095D01*
G01X39923Y84909D01*
G01X39832Y84632D01*
G01X39832Y84447D01*
G01X39923Y84170D01*
G01X40109Y83987D01*
G01X40292Y83893D01*
G01X40568Y83893D01*
G01X40754Y83987D01*
G01X40939Y84170D01*
G01X42011Y85186D02*
G01X41826Y85095D01*
G01X41640Y84909D01*
G01X41549Y84632D01*
G01X41549Y84447D01*
G01X41640Y84170D01*
G01X41826Y83987D01*
G01X42011Y83893D01*
G01X42288Y83893D01*
G01X42473Y83987D01*
G01X42656Y84170D01*
G01X42750Y84447D01*
G01X42750Y84632D01*
G01X42656Y84909D01*
G01X42473Y85095D01*
G01X42288Y85186D01*
G01X42011Y85186D01*
G01X43451Y84355D02*
G01X43360Y84264D01*
G01X43451Y84170D01*
G01X43543Y84264D01*
G01X43451Y84355D01*
G01X44152Y85186D02*
G01X44152Y83893D01*
G01X44152Y84818D02*
G01X44429Y85095D01*
G01X44615Y85186D01*
G01X44891Y85186D01*
G01X45077Y85095D01*
G01X45168Y84818D01*
G01X45168Y83893D01*
G01X46794Y85186D02*
G01X45778Y83893D01*
G01X45778Y85186D02*
G01X46794Y85186D01*
G01X45778Y83893D02*
G01X46794Y83893D01*
G01X44010Y121879D02*
G01X44196Y122064D01*
G01X44287Y122341D01*
G01X44287Y122709D01*
G01X44196Y122986D01*
G01X44010Y123172D01*
G01X43827Y123172D01*
G01X43642Y123080D01*
G01X43548Y122986D01*
G01X43456Y122803D01*
G01X43271Y122247D01*
G01X43180Y122064D01*
G01X43088Y121970D01*
G01X42903Y121879D01*
G01X42626Y121879D01*
G01X42440Y122064D01*
G01X42349Y122341D01*
G01X42349Y122709D01*
G01X42440Y122986D01*
G01X42626Y123172D01*
G01X44010Y119976D02*
G01X44196Y120162D01*
G01X44287Y120439D01*
G01X44287Y120807D01*
G01X44196Y121084D01*
G01X44010Y121269D01*
G01X43827Y121269D01*
G01X43642Y121178D01*
G01X43548Y121084D01*
G01X43456Y120898D01*
G01X43271Y120345D01*
G01X43180Y120162D01*
G01X43088Y120068D01*
G01X42903Y119976D01*
G01X42626Y119976D01*
G01X42440Y120162D01*
G01X42349Y120439D01*
G01X42349Y120807D01*
G01X42440Y121084D01*
G01X42626Y121269D01*
G01X41493Y123172D02*
G01X39555Y123172D01*
G01X41493Y121879D02*
G01X39555Y121879D01*
G01X40571Y123172D02*
G01X40571Y121879D01*
G01X41216Y119976D02*
G01X41402Y120162D01*
G01X41493Y120439D01*
G01X41493Y120807D01*
G01X41402Y121084D01*
G01X41216Y121269D01*
G01X41033Y121269D01*
G01X40848Y121178D01*
G01X40754Y121084D01*
G01X40662Y120898D01*
G01X40477Y120345D01*
G01X40386Y120162D01*
G01X40294Y120068D01*
G01X40109Y119976D01*
G01X39832Y119976D01*
G01X39646Y120162D01*
G01X39555Y120439D01*
G01X39555Y120807D01*
G01X39646Y121084D01*
G01X39832Y121269D01*
G01X43919Y117838D02*
G01X44010Y117652D01*
G01X44287Y117375D01*
G01X42349Y117375D01*
G01X43180Y116766D02*
G01X43180Y115105D01*
G01X43827Y114401D02*
G01X43919Y114401D01*
G01X44104Y114310D01*
G01X44196Y114218D01*
G01X44287Y114033D01*
G01X44287Y113662D01*
G01X44196Y113479D01*
G01X44104Y113385D01*
G01X43919Y113294D01*
G01X43733Y113294D01*
G01X43548Y113385D01*
G01X43271Y113571D01*
G01X42349Y114495D01*
G01X42349Y113202D01*
G01X41033Y118508D02*
G01X41125Y118508D01*
G01X41310Y118414D01*
G01X41402Y118323D01*
G01X41493Y118137D01*
G01X41493Y117769D01*
G01X41402Y117584D01*
G01X41310Y117492D01*
G01X41125Y117398D01*
G01X40939Y117398D01*
G01X40754Y117492D01*
G01X40477Y117675D01*
G01X39555Y118600D01*
G01X39555Y117307D01*
G01X40386Y116697D02*
G01X40386Y115034D01*
G01X41493Y114241D02*
G01X41493Y113225D01*
G01X40754Y113779D01*
G01X40754Y113502D01*
G01X40662Y113317D01*
G01X40571Y113225D01*
G01X40294Y113131D01*
G01X40109Y113131D01*
G01X39832Y113225D01*
G01X39646Y113408D01*
G01X39555Y113685D01*
G01X39555Y113964D01*
G01X39646Y114241D01*
G01X39738Y114333D01*
G01X39923Y114424D01*
G01X38237Y120355D02*
G01X38422Y120540D01*
G01X38513Y120817D01*
G01X38513Y121185D01*
G01X38422Y121462D01*
G01X38237Y121648D01*
G01X38054Y121648D01*
G01X37868Y121556D01*
G01X37774Y121462D01*
G01X37683Y121279D01*
G01X37497Y120723D01*
G01X37406Y120540D01*
G01X37315Y120446D01*
G01X37129Y120355D01*
G01X36852Y120355D01*
G01X36667Y120540D01*
G01X36575Y120817D01*
G01X36575Y121185D01*
G01X36667Y121462D01*
G01X36852Y121648D01*
G01X37315Y119745D02*
G01X37315Y118638D01*
G01X37497Y118638D01*
G01X37683Y118729D01*
G01X37774Y118821D01*
G01X37868Y119006D01*
G01X37868Y119283D01*
G01X37774Y119468D01*
G01X37591Y119654D01*
G01X37315Y119745D01*
G01X37129Y119745D01*
G01X36852Y119654D01*
G01X36667Y119468D01*
G01X36575Y119283D01*
G01X36575Y119006D01*
G01X36667Y118821D01*
G01X36852Y118638D01*
G01X37868Y118028D02*
G01X36575Y118028D01*
G01X37315Y118028D02*
G01X37591Y117934D01*
G01X37774Y117751D01*
G01X37868Y117566D01*
G01X37868Y117289D01*
G01X38513Y116679D02*
G01X38422Y116585D01*
G01X38513Y116494D01*
G01X38607Y116585D01*
G01X38513Y116679D01*
G01X37868Y116585D02*
G01X36575Y116585D01*
G01X37868Y114777D02*
G01X36575Y114777D01*
G01X37591Y114777D02*
G01X37774Y114960D01*
G01X37868Y115145D01*
G01X37868Y115422D01*
G01X37774Y115607D01*
G01X37591Y115793D01*
G01X37315Y115884D01*
G01X37129Y115884D01*
G01X36852Y115793D01*
G01X36667Y115607D01*
G01X36575Y115422D01*
G01X36575Y115145D01*
G01X36667Y114960D01*
G01X36852Y114777D01*
G01X38513Y114167D02*
G01X36575Y114167D01*
G54D53*
G01X38100Y109433D02*
G01X38239Y109502D01*
G01X38445Y109710D01*
G01X38445Y108257D01*
G01X45466Y109433D02*
G01X45605Y109502D01*
G01X45811Y109710D01*
G01X45811Y108257D01*
G01X38168Y106570D02*
G01X38168Y106639D01*
G01X38239Y106779D01*
G01X38308Y106847D01*
G01X38445Y106916D01*
G01X38722Y106916D01*
G01X38862Y106847D01*
G01X38930Y106779D01*
G01X39001Y106639D01*
G01X39001Y106502D01*
G01X38930Y106362D01*
G01X38793Y106154D01*
G01X38100Y105463D01*
G01X39070Y105463D01*
G01X45280Y106824D02*
G01X45280Y106893D01*
G01X45351Y107033D01*
G01X45420Y107101D01*
G01X45557Y107170D01*
G01X45834Y107170D01*
G01X45974Y107101D01*
G01X46042Y107033D01*
G01X46113Y106893D01*
G01X46113Y106756D01*
G01X46042Y106616D01*
G01X45905Y106408D01*
G01X45212Y105717D01*
G01X46182Y105717D01*
G01X45351Y104630D02*
G01X46113Y104630D01*
G01X45697Y104076D01*
G01X45905Y104076D01*
G01X46042Y104008D01*
G01X46113Y103939D01*
G01X46182Y103731D01*
G01X46182Y103591D01*
G01X46113Y103383D01*
G01X45974Y103246D01*
G01X45765Y103177D01*
G01X45557Y103177D01*
G01X45351Y103246D01*
G01X45280Y103314D01*
G01X45212Y103454D01*
G01X38239Y104630D02*
G01X39001Y104630D01*
G01X38585Y104076D01*
G01X38793Y104076D01*
G01X38930Y104008D01*
G01X39001Y103939D01*
G01X39070Y103731D01*
G01X39070Y103591D01*
G01X39001Y103383D01*
G01X38862Y103246D01*
G01X38653Y103177D01*
G01X38445Y103177D01*
G01X38239Y103246D01*
G01X38168Y103314D01*
G01X38100Y103454D01*
G54D54*
G01X15494Y65768D02*
G01X15494Y64991D01*
G01X15544Y64833D01*
G01X15648Y64729D01*
G01X15806Y64678D01*
G01X15910Y64678D01*
G01X16065Y64729D01*
G01X16169Y64833D01*
G01X16220Y64991D01*
G01X16220Y65768D01*
G01X16563Y65562D02*
G01X16667Y65613D01*
G01X16824Y65768D01*
G01X16824Y64678D01*
G54D55*
G01X16002Y69070D02*
G01X16002Y67980D01*
G01X16002Y69070D02*
G01X16365Y69070D01*
G01X16522Y69019D01*
G01X16624Y68915D01*
G01X16677Y68811D01*
G01X16728Y68656D01*
G01X16728Y68397D01*
G01X16677Y68239D01*
G01X16624Y68135D01*
G01X16522Y68031D01*
G01X16365Y67980D01*
G01X16002Y67980D01*
G01X17800Y68915D02*
G01X17696Y69019D01*
G01X17538Y69070D01*
G01X17332Y69070D01*
G01X17175Y69019D01*
G01X17071Y68915D01*
G01X17071Y68811D01*
G01X17124Y68707D01*
G01X17175Y68656D01*
G01X17279Y68603D01*
G01X17592Y68498D01*
G01X17696Y68448D01*
G01X17746Y68397D01*
G01X17800Y68293D01*
G01X17800Y68135D01*
G01X17696Y68031D01*
G01X17538Y67980D01*
G01X17332Y67980D01*
G01X17175Y68031D01*
G01X17071Y68135D01*
G01X18143Y68864D02*
G01X18247Y68915D01*
G01X18402Y69070D01*
G01X18402Y67980D01*
G01X19004Y69070D02*
G01X18849Y69019D01*
G01X18796Y68915D01*
G01X18796Y68811D01*
G01X18849Y68707D01*
G01X18953Y68656D01*
G01X19161Y68603D01*
G01X19316Y68552D01*
G01X19420Y68448D01*
G01X19471Y68343D01*
G01X19471Y68189D01*
G01X19420Y68084D01*
G01X19367Y68031D01*
G01X19212Y67980D01*
G01X19004Y67980D01*
G01X18849Y68031D01*
G01X18796Y68084D01*
G01X18745Y68189D01*
G01X18745Y68343D01*
G01X18796Y68448D01*
G01X18900Y68552D01*
G01X19057Y68603D01*
G01X19265Y68656D01*
G01X19367Y68707D01*
G01X19420Y68811D01*
G01X19420Y68915D01*
G01X19367Y69019D01*
G01X19212Y69070D01*
G01X19004Y69070D01*
G01X19814Y69070D02*
G01X19814Y67980D01*
G01X19814Y69070D02*
G01X20281Y69070D01*
G01X20439Y69019D01*
G01X20490Y68968D01*
G01X20543Y68864D01*
G01X20543Y68760D01*
G01X20490Y68656D01*
G01X20439Y68603D01*
G01X20281Y68552D01*
G01X19814Y68552D02*
G01X20281Y68552D01*
G01X20439Y68498D01*
G01X20490Y68448D01*
G01X20543Y68343D01*
G01X20543Y68189D01*
G01X20490Y68084D01*
G01X20439Y68031D01*
G01X20281Y67980D01*
G01X19814Y67980D01*
G01X20937Y68811D02*
G01X20937Y68864D01*
G01X20990Y68968D01*
G01X21041Y69019D01*
G01X21145Y69070D01*
G01X21353Y69070D01*
G01X21457Y69019D01*
G01X21508Y68968D01*
G01X21562Y68864D01*
G01X21562Y68760D01*
G01X21508Y68656D01*
G01X21404Y68498D01*
G01X20886Y67980D01*
G01X21612Y67980D01*
G01X22268Y69070D02*
G01X22110Y69019D01*
G01X22009Y68864D01*
G01X21955Y68603D01*
G01X21955Y68448D01*
G01X22009Y68189D01*
G01X22110Y68031D01*
G01X22268Y67980D01*
G01X22372Y67980D01*
G01X22527Y68031D01*
G01X22631Y68189D01*
G01X22682Y68448D01*
G01X22682Y68603D01*
G01X22631Y68864D01*
G01X22527Y69019D01*
G01X22372Y69070D01*
G01X22268Y69070D01*
G01X23495Y68915D02*
G01X23495Y67980D01*
G01X23025Y68448D02*
G01X23962Y68448D01*
G54D54*
G01X34290Y66022D02*
G01X34290Y65245D01*
G01X34340Y65087D01*
G01X34444Y64983D01*
G01X34602Y64932D01*
G01X34706Y64932D01*
G01X34861Y64983D01*
G01X34965Y65087D01*
G01X35016Y65245D01*
G01X35016Y66022D01*
G01X35412Y65763D02*
G01X35412Y65816D01*
G01X35463Y65920D01*
G01X35516Y65971D01*
G01X35620Y66022D01*
G01X35826Y66022D01*
G01X35930Y65971D01*
G01X35984Y65920D01*
G01X36034Y65816D01*
G01X36034Y65712D01*
G01X35984Y65608D01*
G01X35880Y65450D01*
G01X35359Y64932D01*
G01X36088Y64932D01*
G54D55*
G01X35560Y69070D02*
G01X35560Y67980D01*
G01X35560Y69070D02*
G01X35923Y69070D01*
G01X36080Y69019D01*
G01X36182Y68915D01*
G01X36235Y68811D01*
G01X36286Y68656D01*
G01X36286Y68397D01*
G01X36235Y68239D01*
G01X36182Y68135D01*
G01X36080Y68031D01*
G01X35923Y67980D01*
G01X35560Y67980D01*
G01X37358Y68915D02*
G01X37254Y69019D01*
G01X37096Y69070D01*
G01X36890Y69070D01*
G01X36733Y69019D01*
G01X36629Y68915D01*
G01X36629Y68811D01*
G01X36682Y68707D01*
G01X36733Y68656D01*
G01X36837Y68603D01*
G01X37150Y68498D01*
G01X37254Y68448D01*
G01X37304Y68397D01*
G01X37358Y68293D01*
G01X37358Y68135D01*
G01X37254Y68031D01*
G01X37096Y67980D01*
G01X36890Y67980D01*
G01X36733Y68031D01*
G01X36629Y68135D01*
G01X37701Y68864D02*
G01X37805Y68915D01*
G01X37960Y69070D01*
G01X37960Y67980D01*
G01X38562Y69070D02*
G01X38407Y69019D01*
G01X38354Y68915D01*
G01X38354Y68811D01*
G01X38407Y68707D01*
G01X38511Y68656D01*
G01X38719Y68603D01*
G01X38874Y68552D01*
G01X38978Y68448D01*
G01X39029Y68343D01*
G01X39029Y68189D01*
G01X38978Y68084D01*
G01X38925Y68031D01*
G01X38770Y67980D01*
G01X38562Y67980D01*
G01X38407Y68031D01*
G01X38354Y68084D01*
G01X38303Y68189D01*
G01X38303Y68343D01*
G01X38354Y68448D01*
G01X38458Y68552D01*
G01X38615Y68603D01*
G01X38823Y68656D01*
G01X38925Y68707D01*
G01X38978Y68811D01*
G01X38978Y68915D01*
G01X38925Y69019D01*
G01X38770Y69070D01*
G01X38562Y69070D01*
G01X39372Y69070D02*
G01X39372Y67980D01*
G01X39372Y69070D02*
G01X39839Y69070D01*
G01X39997Y69019D01*
G01X40048Y68968D01*
G01X40101Y68864D01*
G01X40101Y68760D01*
G01X40048Y68656D01*
G01X39997Y68603D01*
G01X39839Y68552D01*
G01X39372Y68552D02*
G01X39839Y68552D01*
G01X39997Y68498D01*
G01X40048Y68448D01*
G01X40101Y68343D01*
G01X40101Y68189D01*
G01X40048Y68084D01*
G01X39997Y68031D01*
G01X39839Y67980D01*
G01X39372Y67980D01*
G01X40495Y68811D02*
G01X40495Y68864D01*
G01X40548Y68968D01*
G01X40599Y69019D01*
G01X40703Y69070D01*
G01X40911Y69070D01*
G01X41015Y69019D01*
G01X41066Y68968D01*
G01X41120Y68864D01*
G01X41120Y68760D01*
G01X41066Y68656D01*
G01X40962Y68498D01*
G01X40444Y67980D01*
G01X41170Y67980D01*
G01X41826Y69070D02*
G01X41668Y69019D01*
G01X41567Y68864D01*
G01X41513Y68603D01*
G01X41513Y68448D01*
G01X41567Y68189D01*
G01X41668Y68031D01*
G01X41826Y67980D01*
G01X41930Y67980D01*
G01X42085Y68031D01*
G01X42189Y68189D01*
G01X42240Y68448D01*
G01X42240Y68603D01*
G01X42189Y68864D01*
G01X42085Y69019D01*
G01X41930Y69070D01*
G01X41826Y69070D01*
G01X43053Y68915D02*
G01X43053Y67980D01*
G01X42583Y68448D02*
G01X43520Y68448D01*
G54D54*
G01X53848Y66022D02*
G01X53848Y65245D01*
G01X53898Y65087D01*
G01X54002Y64983D01*
G01X54160Y64932D01*
G01X54264Y64932D01*
G01X54419Y64983D01*
G01X54523Y65087D01*
G01X54574Y65245D01*
G01X54574Y66022D01*
G01X55021Y66022D02*
G01X55592Y66022D01*
G01X55283Y65608D01*
G01X55438Y65608D01*
G01X55542Y65555D01*
G01X55592Y65504D01*
G01X55646Y65349D01*
G01X55646Y65245D01*
G01X55592Y65087D01*
G01X55488Y64983D01*
G01X55333Y64932D01*
G01X55178Y64932D01*
G01X55021Y64983D01*
G01X54970Y65036D01*
G01X54917Y65141D01*
G54D55*
G01X54864Y69070D02*
G01X54864Y67980D01*
G01X54864Y69070D02*
G01X55227Y69070D01*
G01X55384Y69019D01*
G01X55486Y68915D01*
G01X55539Y68811D01*
G01X55590Y68656D01*
G01X55590Y68397D01*
G01X55539Y68239D01*
G01X55486Y68135D01*
G01X55384Y68031D01*
G01X55227Y67980D01*
G01X54864Y67980D01*
G01X56662Y68915D02*
G01X56558Y69019D01*
G01X56400Y69070D01*
G01X56194Y69070D01*
G01X56037Y69019D01*
G01X55933Y68915D01*
G01X55933Y68811D01*
G01X55986Y68707D01*
G01X56037Y68656D01*
G01X56141Y68603D01*
G01X56454Y68498D01*
G01X56558Y68448D01*
G01X56608Y68397D01*
G01X56662Y68293D01*
G01X56662Y68135D01*
G01X56558Y68031D01*
G01X56400Y67980D01*
G01X56194Y67980D01*
G01X56037Y68031D01*
G01X55933Y68135D01*
G01X57005Y68864D02*
G01X57109Y68915D01*
G01X57264Y69070D01*
G01X57264Y67980D01*
G01X57866Y69070D02*
G01X57711Y69019D01*
G01X57658Y68915D01*
G01X57658Y68811D01*
G01X57711Y68707D01*
G01X57815Y68656D01*
G01X58023Y68603D01*
G01X58178Y68552D01*
G01X58282Y68448D01*
G01X58333Y68343D01*
G01X58333Y68189D01*
G01X58282Y68084D01*
G01X58229Y68031D01*
G01X58074Y67980D01*
G01X57866Y67980D01*
G01X57711Y68031D01*
G01X57658Y68084D01*
G01X57607Y68189D01*
G01X57607Y68343D01*
G01X57658Y68448D01*
G01X57762Y68552D01*
G01X57919Y68603D01*
G01X58127Y68656D01*
G01X58229Y68707D01*
G01X58282Y68811D01*
G01X58282Y68915D01*
G01X58229Y69019D01*
G01X58074Y69070D01*
G01X57866Y69070D01*
G01X58676Y69070D02*
G01X58676Y67980D01*
G01X58676Y69070D02*
G01X59143Y69070D01*
G01X59301Y69019D01*
G01X59352Y68968D01*
G01X59405Y68864D01*
G01X59405Y68760D01*
G01X59352Y68656D01*
G01X59301Y68603D01*
G01X59143Y68552D01*
G01X58676Y68552D02*
G01X59143Y68552D01*
G01X59301Y68498D01*
G01X59352Y68448D01*
G01X59405Y68343D01*
G01X59405Y68189D01*
G01X59352Y68084D01*
G01X59301Y68031D01*
G01X59143Y67980D01*
G01X58676Y67980D01*
G01X59799Y68811D02*
G01X59799Y68864D01*
G01X59852Y68968D01*
G01X59903Y69019D01*
G01X60007Y69070D01*
G01X60215Y69070D01*
G01X60319Y69019D01*
G01X60370Y68968D01*
G01X60424Y68864D01*
G01X60424Y68760D01*
G01X60370Y68656D01*
G01X60266Y68498D01*
G01X59748Y67980D01*
G01X60474Y67980D01*
G01X61130Y69070D02*
G01X60972Y69019D01*
G01X60871Y68864D01*
G01X60817Y68603D01*
G01X60817Y68448D01*
G01X60871Y68189D01*
G01X60972Y68031D01*
G01X61130Y67980D01*
G01X61234Y67980D01*
G01X61389Y68031D01*
G01X61493Y68189D01*
G01X61544Y68448D01*
G01X61544Y68603D01*
G01X61493Y68864D01*
G01X61389Y69019D01*
G01X61234Y69070D01*
G01X61130Y69070D01*
G01X62357Y68915D02*
G01X62357Y67980D01*
G01X61887Y68448D02*
G01X62824Y68448D01*
G54D54*
G01X73406Y66022D02*
G01X73406Y65245D01*
G01X73456Y65087D01*
G01X73560Y64983D01*
G01X73718Y64932D01*
G01X73822Y64932D01*
G01X73977Y64983D01*
G01X74081Y65087D01*
G01X74132Y65245D01*
G01X74132Y66022D01*
G01X74996Y66022D02*
G01X74475Y65295D01*
G01X75255Y65295D01*
G01X74996Y66022D02*
G01X74996Y64932D01*
G54D55*
G01X74422Y69070D02*
G01X74422Y67980D01*
G01X74422Y69070D02*
G01X74785Y69070D01*
G01X74942Y69019D01*
G01X75044Y68915D01*
G01X75097Y68811D01*
G01X75148Y68656D01*
G01X75148Y68397D01*
G01X75097Y68239D01*
G01X75044Y68135D01*
G01X74942Y68031D01*
G01X74785Y67980D01*
G01X74422Y67980D01*
G01X76220Y68915D02*
G01X76116Y69019D01*
G01X75958Y69070D01*
G01X75752Y69070D01*
G01X75595Y69019D01*
G01X75491Y68915D01*
G01X75491Y68811D01*
G01X75544Y68707D01*
G01X75595Y68656D01*
G01X75699Y68603D01*
G01X76012Y68498D01*
G01X76116Y68448D01*
G01X76166Y68397D01*
G01X76220Y68293D01*
G01X76220Y68135D01*
G01X76116Y68031D01*
G01X75958Y67980D01*
G01X75752Y67980D01*
G01X75595Y68031D01*
G01X75491Y68135D01*
G01X76563Y68864D02*
G01X76667Y68915D01*
G01X76822Y69070D01*
G01X76822Y67980D01*
G01X77424Y69070D02*
G01X77269Y69019D01*
G01X77216Y68915D01*
G01X77216Y68811D01*
G01X77269Y68707D01*
G01X77373Y68656D01*
G01X77581Y68603D01*
G01X77736Y68552D01*
G01X77840Y68448D01*
G01X77891Y68343D01*
G01X77891Y68189D01*
G01X77840Y68084D01*
G01X77787Y68031D01*
G01X77632Y67980D01*
G01X77424Y67980D01*
G01X77269Y68031D01*
G01X77216Y68084D01*
G01X77165Y68189D01*
G01X77165Y68343D01*
G01X77216Y68448D01*
G01X77320Y68552D01*
G01X77477Y68603D01*
G01X77685Y68656D01*
G01X77787Y68707D01*
G01X77840Y68811D01*
G01X77840Y68915D01*
G01X77787Y69019D01*
G01X77632Y69070D01*
G01X77424Y69070D01*
G01X78234Y69070D02*
G01X78234Y67980D01*
G01X78234Y69070D02*
G01X78701Y69070D01*
G01X78859Y69019D01*
G01X78910Y68968D01*
G01X78963Y68864D01*
G01X78963Y68760D01*
G01X78910Y68656D01*
G01X78859Y68603D01*
G01X78701Y68552D01*
G01X78234Y68552D02*
G01X78701Y68552D01*
G01X78859Y68498D01*
G01X78910Y68448D01*
G01X78963Y68343D01*
G01X78963Y68189D01*
G01X78910Y68084D01*
G01X78859Y68031D01*
G01X78701Y67980D01*
G01X78234Y67980D01*
G01X79357Y68811D02*
G01X79357Y68864D01*
G01X79410Y68968D01*
G01X79461Y69019D01*
G01X79565Y69070D01*
G01X79773Y69070D01*
G01X79877Y69019D01*
G01X79928Y68968D01*
G01X79982Y68864D01*
G01X79982Y68760D01*
G01X79928Y68656D01*
G01X79824Y68498D01*
G01X79306Y67980D01*
G01X80032Y67980D01*
G01X80688Y69070D02*
G01X80530Y69019D01*
G01X80429Y68864D01*
G01X80375Y68603D01*
G01X80375Y68448D01*
G01X80429Y68189D01*
G01X80530Y68031D01*
G01X80688Y67980D01*
G01X80792Y67980D01*
G01X80947Y68031D01*
G01X81051Y68189D01*
G01X81102Y68448D01*
G01X81102Y68603D01*
G01X81051Y68864D01*
G01X80947Y69019D01*
G01X80792Y69070D01*
G01X80688Y69070D01*
G01X81915Y68915D02*
G01X81915Y67980D01*
G01X81445Y68448D02*
G01X82382Y68448D01*
G54D54*
G01X71846Y86695D02*
G01X71742Y86799D01*
G01X71587Y86850D01*
G01X71379Y86850D01*
G01X71224Y86799D01*
G01X71120Y86695D01*
G01X71120Y86591D01*
G01X71170Y86487D01*
G01X71224Y86436D01*
G01X71328Y86383D01*
G01X71640Y86278D01*
G01X71742Y86228D01*
G01X71795Y86177D01*
G01X71846Y86073D01*
G01X71846Y85915D01*
G01X71742Y85811D01*
G01X71587Y85760D01*
G01X71379Y85760D01*
G01X71224Y85811D01*
G01X71120Y85915D01*
G01X72189Y86850D02*
G01X72450Y85760D01*
G01X72710Y86850D02*
G01X72450Y85760D01*
G01X72710Y86850D02*
G01X72969Y85760D01*
G01X73228Y86850D02*
G01X72969Y85760D01*
G01X73571Y86644D02*
G01X73675Y86695D01*
G01X73832Y86850D01*
G01X73832Y85760D01*
G54D51*
G01X18034Y11665D02*
G01X20111Y11665D01*
G01X37337Y11665D02*
G01X39418Y11665D01*
G01X56642Y11665D02*
G01X58720Y11665D01*
G01X75946Y11411D02*
G01X78023Y11411D01*
G01X38376Y76436D02*
G01X38376Y74358D01*
G01X37337Y75397D02*
G01X39418Y75397D01*
G01X19072Y76436D02*
G01X19072Y74358D01*
G01X18034Y75397D02*
G01X20111Y75397D01*
G01X57681Y76436D02*
G01X57681Y74358D01*
G01X56642Y75397D02*
G01X58720Y75397D01*
G01X76985Y76436D02*
G01X76985Y74358D01*
G01X75946Y75397D02*
G01X78023Y75397D01*
G54D55*
G01X13462Y133078D02*
G01X13462Y131988D01*
G01X13462Y131988D02*
G01X14084Y131988D01*
G01X15206Y132819D02*
G01X15156Y132923D01*
G01X15052Y133027D01*
G01X14947Y133078D01*
G01X14739Y133078D01*
G01X14635Y133027D01*
G01X14531Y132923D01*
G01X14480Y132819D01*
G01X14427Y132664D01*
G01X14427Y132405D01*
G01X14480Y132247D01*
G01X14531Y132143D01*
G01X14635Y132039D01*
G01X14739Y131988D01*
G01X14947Y131988D01*
G01X15052Y132039D01*
G01X15156Y132143D01*
G01X15206Y132247D01*
G01X15549Y133078D02*
G01X15549Y131988D01*
G01X15549Y133078D02*
G01X15913Y133078D01*
G01X16070Y133027D01*
G01X16174Y132923D01*
G01X16225Y132819D01*
G01X16278Y132664D01*
G01X16278Y132405D01*
G01X16225Y132247D01*
G01X16174Y132143D01*
G01X16070Y132039D01*
G01X15913Y131988D01*
G01X15549Y131988D01*
G01X17421Y132872D02*
G01X17526Y132923D01*
G01X17680Y133078D01*
G01X17680Y131988D01*
G01X18646Y132923D02*
G01X18595Y133027D01*
G01X18440Y133078D01*
G01X18336Y133078D01*
G01X18178Y133027D01*
G01X18074Y132872D01*
G01X18023Y132611D01*
G01X18023Y132351D01*
G01X18074Y132143D01*
G01X18178Y132039D01*
G01X18336Y131988D01*
G01X18387Y131988D01*
G01X18542Y132039D01*
G01X18646Y132143D01*
G01X18699Y132301D01*
G01X18699Y132351D01*
G01X18646Y132506D01*
G01X18542Y132611D01*
G01X18387Y132664D01*
G01X18336Y132664D01*
G01X18178Y132611D01*
G01X18074Y132506D01*
G01X18023Y132351D01*
G01X19042Y132715D02*
G01X19613Y131988D01*
G01X19613Y132715D02*
G01X19042Y131988D01*
G01X20007Y132819D02*
G01X20007Y132872D01*
G01X20060Y132976D01*
G01X20111Y133027D01*
G01X20215Y133078D01*
G01X20424Y133078D01*
G01X20528Y133027D01*
G01X20579Y132976D01*
G01X20632Y132872D01*
G01X20632Y132768D01*
G01X20579Y132664D01*
G01X20474Y132506D01*
G01X19956Y131988D01*
G01X20683Y131988D01*
G01X21826Y133078D02*
G01X21826Y131988D01*
G01X22222Y132819D02*
G01X22222Y132872D01*
G01X22273Y132976D01*
G01X22326Y133027D01*
G01X22428Y133078D01*
G01X22636Y133078D01*
G01X22740Y133027D01*
G01X22793Y132976D01*
G01X22844Y132872D01*
G01X22844Y132768D01*
G01X22793Y132664D01*
G01X22689Y132506D01*
G01X22169Y131988D01*
G01X22898Y131988D01*
G01X24018Y132819D02*
G01X23967Y132923D01*
G01X23863Y133027D01*
G01X23759Y133078D01*
G01X23550Y133078D01*
G01X23446Y133027D01*
G01X23342Y132923D01*
G01X23291Y132819D01*
G01X23241Y132664D01*
G01X23241Y132405D01*
G01X23291Y132247D01*
G01X23342Y132143D01*
G01X23446Y132039D01*
G01X23550Y131988D01*
G01X23759Y131988D01*
G01X23863Y132039D01*
G01X23967Y132143D01*
G01X24018Y132247D01*
G54D51*
G01X18549Y130452D02*
G01X18481Y130589D01*
G01X18343Y130723D01*
G01X18206Y130792D01*
G01X17934Y130792D01*
G01X17797Y130723D01*
G01X17663Y130589D01*
G01X17594Y130452D01*
G01X17526Y130246D01*
G01X17526Y129906D01*
G01X17594Y129702D01*
G01X17663Y129565D01*
G01X17797Y129428D01*
G01X17934Y129359D01*
G01X18206Y129359D01*
G01X18343Y129428D01*
G01X18481Y129565D01*
G01X18549Y129702D01*
G01X18549Y129906D01*
G01X18206Y129906D02*
G01X18549Y129906D01*
G01X18999Y130792D02*
G01X18999Y129359D01*
G01X18999Y130792D02*
G01X19954Y129359D01*
G01X19954Y130792D02*
G01X19954Y129359D01*
G01X20403Y130792D02*
G01X20403Y129359D01*
G01X20403Y130792D02*
G01X20881Y130792D01*
G01X21084Y130723D01*
G01X21221Y130589D01*
G01X21290Y130452D01*
G01X21358Y130246D01*
G01X21358Y129906D01*
G01X21290Y129702D01*
G01X21221Y129565D01*
G01X21084Y129428D01*
G01X20881Y129359D01*
G01X20403Y129359D01*
G01X18481Y125509D02*
G01X18343Y125643D01*
G01X18140Y125712D01*
G01X17866Y125712D01*
G01X17663Y125643D01*
G01X17526Y125509D01*
G01X17526Y125372D01*
G01X17594Y125235D01*
G01X17663Y125166D01*
G01X17797Y125100D01*
G01X18206Y124963D01*
G01X18343Y124894D01*
G01X18412Y124826D01*
G01X18481Y124688D01*
G01X18481Y124485D01*
G01X18343Y124348D01*
G01X18140Y124279D01*
G01X17866Y124279D01*
G01X17663Y124348D01*
G01X17526Y124485D01*
G01X18930Y125712D02*
G01X18930Y124279D01*
G01X18930Y125712D02*
G01X19408Y125712D01*
G01X19611Y125643D01*
G01X19748Y125509D01*
G01X19817Y125372D01*
G01X19885Y125166D01*
G01X19885Y124826D01*
G01X19817Y124622D01*
G01X19748Y124485D01*
G01X19611Y124348D01*
G01X19408Y124279D01*
G01X18930Y124279D01*
G01X20881Y125712D02*
G01X20335Y124279D01*
G01X20881Y125712D02*
G01X21424Y124279D01*
G01X20538Y124757D02*
G01X21221Y124757D01*
G01X18481Y123223D02*
G01X18343Y123357D01*
G01X18140Y123426D01*
G01X17866Y123426D01*
G01X17663Y123357D01*
G01X17526Y123223D01*
G01X17526Y123086D01*
G01X17594Y122949D01*
G01X17663Y122880D01*
G01X17797Y122814D01*
G01X18206Y122677D01*
G01X18343Y122608D01*
G01X18412Y122540D01*
G01X18481Y122402D01*
G01X18481Y122199D01*
G01X18343Y122062D01*
G01X18140Y121993D01*
G01X17866Y121993D01*
G01X17663Y122062D01*
G01X17526Y122199D01*
G01X19954Y123086D02*
G01X19885Y123223D01*
G01X19748Y123357D01*
G01X19611Y123426D01*
G01X19339Y123426D01*
G01X19202Y123357D01*
G01X19067Y123223D01*
G01X18999Y123086D01*
G01X18930Y122880D01*
G01X18930Y122540D01*
G01X18999Y122336D01*
G01X19067Y122199D01*
G01X19202Y122062D01*
G01X19339Y121993D01*
G01X19611Y121993D01*
G01X19748Y122062D01*
G01X19885Y122199D01*
G01X19954Y122336D01*
G01X20403Y123426D02*
G01X20403Y121993D01*
G01X20403Y121993D02*
G01X21221Y121993D01*
G01X18344Y128251D02*
G01X17663Y128251D01*
G01X17594Y127639D01*
G01X17663Y127705D01*
G01X17866Y127774D01*
G01X18072Y127774D01*
G01X18275Y127705D01*
G01X18412Y127571D01*
G01X18481Y127365D01*
G01X18481Y127228D01*
G01X18412Y127025D01*
G01X18275Y126887D01*
G01X18072Y126819D01*
G01X17866Y126819D01*
G01X17663Y126887D01*
G01X17594Y126956D01*
G01X17526Y127093D01*
G01X18930Y128251D02*
G01X19477Y126819D01*
G01X20020Y128251D02*
G01X19477Y126819D01*
G54D56*
G01X58928Y130284D02*
G01X58928Y126466D01*
G01X58928Y126466D02*
G01X61109Y126466D01*
G01X65036Y129374D02*
G01X64856Y129738D01*
G01X64490Y130101D01*
G01X64127Y130284D01*
G01X63400Y130284D01*
G01X63037Y130101D01*
G01X62674Y129738D01*
G01X62491Y129374D01*
G01X62308Y128828D01*
G01X62308Y127919D01*
G01X62491Y127375D01*
G01X62674Y127012D01*
G01X63037Y126646D01*
G01X63400Y126466D01*
G01X64127Y126466D01*
G01X64490Y126646D01*
G01X64856Y127012D01*
G01X65036Y127375D01*
G01X66238Y130284D02*
G01X66238Y126466D01*
G01X66238Y130284D02*
G01X67510Y130284D01*
G01X68054Y130101D01*
G01X68419Y129738D01*
G01X68600Y129374D01*
G01X68783Y128828D01*
G01X68783Y127919D01*
G01X68600Y127375D01*
G01X68419Y127012D01*
G01X68054Y126646D01*
G01X67510Y126466D01*
G01X66238Y126466D01*
G01X72783Y129557D02*
G01X73146Y129738D01*
G01X73690Y130284D01*
G01X73690Y126466D01*
G01X77073Y129738D02*
G01X76890Y130101D01*
G01X76347Y130284D01*
G01X75981Y130284D01*
G01X75438Y130101D01*
G01X75072Y129557D01*
G01X74891Y128648D01*
G01X74891Y127739D01*
G01X75072Y127012D01*
G01X75438Y126646D01*
G01X75981Y126466D01*
G01X76164Y126466D01*
G01X76710Y126646D01*
G01X77073Y127012D01*
G01X77254Y127556D01*
G01X77254Y127739D01*
G01X77073Y128285D01*
G01X76710Y128648D01*
G01X76164Y128828D01*
G01X75981Y128828D01*
G01X75438Y128648D01*
G01X75072Y128285D01*
G01X74891Y127739D01*
G01X78455Y129011D02*
G01X80454Y126466D01*
G01X80454Y129011D02*
G01X78455Y126466D01*
G01X81836Y129374D02*
G01X81836Y129557D01*
G01X82019Y129921D01*
G01X82199Y130101D01*
G01X82565Y130284D01*
G01X83291Y130284D01*
G01X83654Y130101D01*
G01X83837Y129921D01*
G01X84018Y129557D01*
G01X84018Y129192D01*
G01X83837Y128828D01*
G01X83474Y128285D01*
G01X81655Y126466D01*
G01X84201Y126466D01*
G54D55*
G01X38826Y91676D02*
G01X38308Y90586D01*
G01X38100Y91676D02*
G01X38826Y91676D01*
G01X39690Y91676D02*
G01X39169Y90949D01*
G01X39949Y90949D01*
G01X39690Y91676D02*
G01X39690Y90586D01*
G01X40292Y91676D02*
G01X40292Y90586D01*
G01X41021Y91676D02*
G01X41021Y90586D01*
G01X40292Y91158D02*
G01X41021Y91158D01*
G01X42141Y91417D02*
G01X42090Y91521D01*
G01X41986Y91625D01*
G01X41882Y91676D01*
G01X41673Y91676D01*
G01X41569Y91625D01*
G01X41465Y91521D01*
G01X41414Y91417D01*
G01X41363Y91262D01*
G01X41363Y91003D01*
G01X41414Y90845D01*
G01X41465Y90741D01*
G01X41569Y90637D01*
G01X41673Y90586D01*
G01X41882Y90586D01*
G01X41986Y90637D01*
G01X42090Y90741D01*
G01X42141Y90845D01*
G01X43108Y91676D02*
G01X42588Y91676D01*
G01X42537Y91209D01*
G01X42588Y91262D01*
G01X42745Y91313D01*
G01X42900Y91313D01*
G01X43055Y91262D01*
G01X43159Y91158D01*
G01X43213Y91003D01*
G01X43213Y90899D01*
G01X43159Y90741D01*
G01X43055Y90637D01*
G01X42900Y90586D01*
G01X42745Y90586D01*
G01X42588Y90637D01*
G01X42537Y90690D01*
G01X42484Y90795D01*
G01X44231Y91313D02*
G01X44178Y91158D01*
G01X44074Y91054D01*
G01X43919Y91003D01*
G01X43865Y91003D01*
G01X43710Y91054D01*
G01X43606Y91158D01*
G01X43555Y91313D01*
G01X43555Y91366D01*
G01X43606Y91521D01*
G01X43710Y91625D01*
G01X43865Y91676D01*
G01X43919Y91676D01*
G01X44074Y91625D01*
G01X44178Y91521D01*
G01X44231Y91313D01*
G01X44231Y91054D01*
G01X44178Y90795D01*
G01X44074Y90637D01*
G01X43919Y90586D01*
G01X43815Y90586D01*
G01X43660Y90637D01*
G01X43606Y90741D01*
G01X45196Y91676D02*
G01X44678Y91676D01*
G01X44625Y91209D01*
G01X44678Y91262D01*
G01X44833Y91313D01*
G01X44988Y91313D01*
G01X45145Y91262D01*
G01X45250Y91158D01*
G01X45300Y91003D01*
G01X45300Y90899D01*
G01X45250Y90741D01*
G01X45145Y90637D01*
G01X44988Y90586D01*
G01X44833Y90586D01*
G01X44678Y90637D01*
G01X44625Y90690D01*
G01X44574Y90795D01*
G01X45643Y91676D02*
G01X45643Y90586D01*
G01X45643Y91676D02*
G01X46370Y90586D01*
G01X46370Y91676D02*
G01X46370Y90586D01*
G01X67891Y121902D02*
G01X66801Y121902D01*
G01X67891Y121902D02*
G01X67891Y121434D01*
G01X67840Y121279D01*
G01X67789Y121226D01*
G01X67685Y121175D01*
G01X67581Y121175D01*
G01X67477Y121226D01*
G01X67424Y121279D01*
G01X67373Y121434D01*
G01X67373Y121902D02*
G01X67373Y121434D01*
G01X67320Y121279D01*
G01X67269Y121226D01*
G01X67165Y121175D01*
G01X67010Y121175D01*
G01X66906Y121226D01*
G01X66852Y121279D01*
G01X66801Y121434D01*
G01X66801Y121902D01*
G01X67891Y120832D02*
G01X67114Y120832D01*
G01X66956Y120779D01*
G01X66852Y120675D01*
G01X66801Y120520D01*
G01X66801Y120416D01*
G01X66852Y120261D01*
G01X66956Y120157D01*
G01X67114Y120103D01*
G01X67891Y120103D01*
G01X67891Y119034D02*
G01X66801Y119760D01*
G01X67891Y119760D02*
G01X67891Y119034D01*
G01X66801Y119760D02*
G01X66801Y119034D01*
G01X67891Y117965D02*
G01X66801Y118691D01*
G01X67891Y118691D02*
G01X67891Y117965D01*
G01X66801Y118691D02*
G01X66801Y117965D01*
G01X67891Y117622D02*
G01X66801Y117622D01*
G01X67891Y117622D02*
G01X67891Y116946D01*
G01X67373Y117622D02*
G01X67373Y117205D01*
G01X66801Y117622D02*
G01X66801Y116946D01*
G01X67891Y116603D02*
G01X66801Y116603D01*
G01X67891Y116603D02*
G01X67891Y116136D01*
G01X67840Y115978D01*
G01X67789Y115928D01*
G01X67685Y115874D01*
G01X67581Y115874D01*
G01X67477Y115928D01*
G01X67424Y115978D01*
G01X67373Y116136D01*
G01X67373Y116603D01*
G01X67373Y116237D02*
G01X66801Y115874D01*
G01X36781Y143075D02*
G01X36263Y143075D01*
G01X36210Y142607D01*
G01X36263Y142661D01*
G01X36418Y142712D01*
G01X36575Y142712D01*
G01X36730Y142661D01*
G01X36834Y142557D01*
G01X36885Y142402D01*
G01X36885Y142298D01*
G01X36834Y142140D01*
G01X36730Y142036D01*
G01X36575Y141985D01*
G01X36418Y141985D01*
G01X36263Y142036D01*
G01X36210Y142089D01*
G01X36159Y142193D01*
G01X37228Y143075D02*
G01X37645Y141985D01*
G01X38061Y143075D02*
G01X37645Y141985D01*
G01X44051Y142816D02*
G01X43997Y142920D01*
G01X43893Y143024D01*
G01X43791Y143075D01*
G01X43583Y143075D01*
G01X43479Y143024D01*
G01X43375Y142920D01*
G01X43322Y142816D01*
G01X43271Y142661D01*
G01X43271Y142402D01*
G01X43322Y142244D01*
G01X43375Y142140D01*
G01X43479Y142036D01*
G01X43583Y141985D01*
G01X43791Y141985D01*
G01X43893Y142036D01*
G01X43997Y142140D01*
G01X44051Y142244D01*
G01X44051Y142402D01*
G01X43791Y142402D02*
G01X44051Y142402D01*
G01X44393Y143075D02*
G01X44393Y141985D01*
G01X44393Y143075D02*
G01X45120Y141985D01*
G01X45120Y143075D02*
G01X45120Y141985D01*
G01X45463Y143075D02*
G01X45463Y141985D01*
G01X45463Y143075D02*
G01X45826Y143075D01*
G01X45984Y143024D01*
G01X46088Y142920D01*
G01X46138Y142816D01*
G01X46192Y142661D01*
G01X46192Y142402D01*
G01X46138Y142244D01*
G01X46088Y142140D01*
G01X45984Y142036D01*
G01X45826Y141985D01*
G01X45463Y141985D01*
G54D10*
G75*
G01X17422Y62898D02*
G03X17422Y66860I1498J1981D01*
G01*
G75*
G01X36726Y62898D02*
G03X36726Y66860I1498J1981D01*
G01*
G75*
G01X56284Y62898D02*
G03X56284Y66860I1498J1981D01*
G01*
G75*
G01X75588Y62898D02*
G03X75588Y66860I1498J1981D01*
G01*
G75*
G01X74422Y90660D02*
G03X74422Y90660I-1778J0D01*
G01*
G75*
G01X33782Y89390D02*
G03X33782Y89390I-254J0D01*
G01*
G75*
G01X72187Y118854D02*
G03X72187Y118854I-5893J0D01*
G01*
M00*
M02*
